<?xml version="1.0" encoding="UTF-8" standalone="no"?>
<!DOCTYPE svg PUBLIC "-//W3C//DTD SVG 1.1//EN" "http://www.w3.org/Graphics/SVG/1.1/DTD/svg11.dtd">


<svg height="100%" stroke-miterlimit="10" style="fill-rule:nonzero;clip-rule:evenodd;stroke-linecap:round;stroke-linejoin:round;" version="1.1" viewBox="0 0 1080 1080" width="100%" xml:space="preserve" xmlns="http://www.w3.org/2000/svg" xmlns:xlink="http://www.w3.org/1999/xlink">
<defs/>
<g id="Ebene-1-kopieren">
<path d="M513.409 198.489C505.039 199.685 496.788 201.479 488.657 203.87C480.526 206.262 470.242 210.566 457.806 216.784C445.37 223.002 435.565 228.862 428.39 234.362C421.216 239.863 413.802 246.679 406.149 254.81C398.496 262.941 392.158 270.713 387.136 278.127C382.114 285.541 378.168 292.118 375.298 297.857C372.428 303.597 370.276 308.619 368.841 312.924C367.406 317.229 363.101 319.62 355.927 320.099C348.752 320.577 342.773 321.294 337.99 322.251C333.207 323.208 325.196 325.599 313.955 329.426C302.715 333.252 291.595 338.394 280.593 344.851C269.592 351.308 259.787 358.363 251.178 366.016C242.568 373.669 235.633 380.724 230.371 387.181C225.11 393.638 220.686 399.737 217.098 405.476C213.511 411.216 210.163 417.314 207.054 423.772C203.945 430.229 201.075 437.403 198.444 445.295C195.814 453.187 193.781 460.84 192.346 468.254C190.911 475.668 189.954 482.723 189.476 489.419C188.998 496.115 188.998 504.127 189.476 513.454C189.954 522.781 190.672 530.075 191.628 535.337C192.585 540.598 194.618 548.251 197.727 558.295C200.836 568.34 205.021 578.384 210.282 588.429C215.544 598.473 221.762 608.039 228.936 617.127C236.111 626.215 243.046 633.628 249.743 639.368C256.439 645.108 258.711 653.359 256.559 664.121C254.406 674.882 253.33 686.601 253.33 699.276C253.33 711.951 254.406 723.789 256.559 734.79C258.711 745.791 261.342 755.477 264.451 763.847C267.56 772.218 271.147 780.11 275.213 787.524C279.278 794.937 283.583 801.753 288.127 807.971C292.671 814.189 298.171 820.646 304.628 827.343C311.086 834.039 317.184 839.659 322.924 844.203C328.663 848.747 335.12 853.171 342.295 857.476C349.47 861.781 356.285 865.368 362.743 868.238C369.2 871.108 376.016 873.619 383.19 875.771C390.365 877.924 398.257 879.717 406.866 881.152C415.476 882.587 425.52 883.304 437 883.304C448.479 883.304 459.48 882.348 470.003 880.435C480.526 878.521 490.69 875.771 500.495 872.184C510.3 868.597 519.388 864.292 527.758 859.27C536.129 854.247 545.695 854.606 556.457 860.346C567.219 866.085 577.981 870.629 588.742 873.977C599.504 877.326 609.549 879.598 618.876 880.793C628.203 881.989 637.888 882.467 647.933 882.228C657.977 881.989 665.989 881.391 671.968 880.435C677.947 879.478 686.915 877.086 698.872 873.26C710.83 869.434 722.309 864.411 733.311 858.193C744.312 851.975 754.356 844.92 763.444 837.028C772.532 829.136 779.826 821.842 785.326 815.146C790.827 808.449 795.251 802.471 798.599 797.209C801.948 791.948 805.654 785.012 809.72 776.403C813.786 767.793 816.895 760.021 819.047 753.086C821.199 746.15 822.873 739.573 824.069 733.355C825.265 727.137 826.102 717.691 826.58 705.016C827.059 692.341 826.222 679.665 824.069 666.99C821.917 654.315 824.428 644.749 831.603 638.292C838.777 631.835 844.876 625.497 849.898 619.279C854.92 613.061 860.062 605.528 865.323 596.679C870.584 587.831 875.009 578.743 878.596 569.416C882.183 560.089 884.814 551.719 886.488 544.305C888.162 536.891 889.358 529.358 890.075 521.705C890.793 514.052 891.032 505.921 890.793 497.311C890.554 488.702 889.956 481.288 888.999 475.07C888.043 468.852 885.771 460.003 882.183 448.524C878.596 437.045 874.172 426.402 868.91 416.597C863.649 406.792 858.149 398.182 852.409 390.768C846.669 383.355 841.647 377.495 837.342 373.191C833.037 368.886 827.896 364.342 821.917 359.559C815.938 354.776 810.318 350.71 805.057 347.362C799.795 344.014 792.74 340.307 783.891 336.241C775.043 332.176 765.955 328.828 756.628 326.197C747.301 323.566 737.854 321.773 728.288 320.816C718.722 319.859 712.026 314.957 708.199 306.108C704.373 297.259 699.231 288.052 692.774 278.486C686.317 268.92 679.381 260.31 671.968 252.657C664.554 245.004 655.944 237.71 646.139 230.775C636.334 223.839 627.127 218.339 618.517 214.273C609.907 210.208 601.178 206.86 592.33 204.229C583.481 201.598 574.872 199.685 566.501 198.489C558.131 197.293 549.282 196.696 539.955 196.696C530.628 196.696 521.78 197.293 513.409 198.489ZM540.314 234.721C547.967 234.721 555.62 235.319 563.273 236.515C570.926 237.71 578.1 239.384 584.796 241.537C591.493 243.689 598.428 246.559 605.603 250.146C612.777 253.734 619.354 257.68 625.333 261.984C631.312 266.289 637.291 271.431 643.269 277.41C649.248 283.389 654.39 289.367 658.695 295.346C662.999 301.325 666.587 307.065 669.457 312.565C672.326 318.066 673.761 321.055 673.761 321.534C673.761 322.012 669.935 323.088 662.282 324.762C654.629 326.436 647.933 328.349 642.193 330.502C636.453 332.654 630.475 335.285 624.257 338.394C618.039 341.503 611.821 345.09 605.603 349.156C599.385 353.221 594.363 356.809 590.536 359.918C586.71 363.027 581.329 368.168 574.393 375.343C567.458 382.518 561.359 389.812 556.098 397.226C550.837 404.639 546.891 410.977 544.26 416.238C542.945 418.869 541.629 421.5 540.314 424.13C538.52 420.902 536.727 417.673 534.933 414.445C531.346 407.987 526.921 401.172 521.66 393.997C516.399 386.822 509.224 378.93 500.136 370.321C491.048 361.711 483.156 355.135 476.46 350.591C469.764 346.047 462.828 341.981 455.654 338.394C448.479 334.807 441.065 331.698 433.412 329.067C425.759 326.436 419.302 324.643 414.041 323.686C411.41 323.208 408.78 322.729 406.149 322.251C407.464 319.501 408.78 316.75 410.095 314C412.726 308.5 415.954 302.999 419.781 297.499C423.607 291.998 428.749 285.9 435.206 279.203C441.663 272.507 447.283 267.365 452.066 263.778C456.849 260.191 464.502 255.766 475.025 250.505C485.548 245.244 494.277 241.656 501.212 239.743C508.148 237.83 514.485 236.515 520.225 235.797C525.965 235.08 532.661 234.721 540.314 234.721ZM355.568 358.124C356.166 358.124 356.764 358.124 357.362 358.124C357.123 359.559 356.883 360.994 356.644 362.429C356.166 365.299 355.927 371.636 355.927 381.441C355.927 391.247 356.166 398.302 356.644 402.606C357.123 406.911 358.916 415.042 362.025 427C365.134 438.958 368.602 449.122 372.428 457.492C376.255 465.863 379.962 472.918 383.549 478.657C387.136 484.397 393.235 492.169 401.844 501.975C406.149 506.877 410.454 511.78 414.758 516.683C412.008 517.041 409.258 517.4 406.508 517.759C401.007 518.476 394.43 519.911 386.778 522.064C379.125 524.216 370.993 527.205 362.384 531.032C353.774 534.858 347.078 538.206 342.295 541.076C337.512 543.946 332.251 547.533 326.511 551.838C320.771 556.143 315.271 560.806 310.009 565.829C304.748 570.851 300.084 575.753 296.019 580.536C291.953 585.32 287.409 591.657 282.387 599.549C279.876 603.495 277.365 607.441 274.854 611.387C272.582 609.115 270.31 606.843 268.038 604.571C263.494 600.027 259.07 594.766 254.765 588.787C250.46 582.808 246.634 576.59 243.286 570.133C239.937 563.676 237.187 557.339 235.035 551.121C232.882 544.903 231.208 538.924 230.013 533.184C228.817 527.444 227.98 520.031 227.501 510.943C227.023 501.855 227.143 494.083 227.86 487.625C228.578 481.168 229.654 474.95 231.089 468.971C232.524 462.993 234.437 456.894 236.828 450.676C239.22 444.458 242.568 437.642 246.873 430.229C251.178 422.815 255.124 416.836 258.711 412.292C262.298 407.748 266.842 402.846 272.343 397.584C277.843 392.323 283.702 387.54 289.92 383.235C296.138 378.93 302.117 375.343 307.857 372.473C313.597 369.603 320.054 366.973 327.228 364.581C334.403 362.19 340.621 360.516 345.882 359.559C351.144 358.602 354.372 358.124 355.568 358.124ZM723.266 358.124C726.375 358.602 729.484 359.081 732.593 359.559C738.811 360.516 746.344 362.548 755.193 365.657C764.042 368.766 770.738 371.517 775.282 373.908C779.826 376.3 785.566 380.006 792.501 385.029C799.436 390.051 805.176 394.834 809.72 399.378C814.264 403.922 818.808 409.183 823.352 415.162C827.896 421.141 832.798 429.631 838.06 440.632C843.321 451.633 846.669 459.764 848.104 465.025C849.539 470.287 850.735 476.624 851.691 484.038C852.648 491.452 853.007 499.344 852.768 507.714C852.528 516.085 851.811 523.498 850.615 529.956C849.419 536.413 847.985 542.272 846.31 547.533C844.636 552.795 842.364 558.534 839.495 564.752C836.625 570.97 833.037 577.308 828.733 583.765C824.428 590.222 819.645 596.321 814.383 602.06C809.122 607.8 806.133 610.55 805.415 610.311C804.698 610.072 803.502 608.278 801.828 604.93C800.154 601.582 796.686 596.321 791.425 589.146C786.163 581.971 781.261 575.993 776.717 571.209C772.173 566.426 766.553 561.285 759.857 555.784C753.16 550.284 747.181 545.859 741.92 542.511C736.659 539.163 730.321 535.695 722.907 532.108C715.494 528.521 707.721 525.412 699.59 522.781C691.459 520.15 683.925 518.237 676.99 517.041C673.522 516.443 670.055 515.846 666.587 515.248C669.098 512.617 671.609 509.986 674.12 507.356C679.142 502.094 684.404 495.637 689.904 487.984C695.405 480.331 700.786 471.004 706.047 460.003C711.308 449.002 715.494 437.045 718.603 424.13C721.712 411.216 723.505 399.617 723.984 389.333C724.462 379.05 724.462 371.277 723.984 366.016C723.744 363.385 723.505 360.755 723.266 358.124ZM395.387 358.841C399.931 359.918 404.475 360.994 409.019 362.07C418.107 364.222 427.553 367.69 437.358 372.473C447.164 377.256 455.773 382.518 463.187 388.257C470.601 393.997 477.417 400.454 483.635 407.629C489.853 414.803 495.473 422.815 500.495 431.664C505.517 440.512 509.463 449.361 512.333 458.21C515.203 467.058 517.116 474.352 518.073 480.092C519.029 485.832 519.508 493.365 519.508 502.692C519.508 512.019 519.268 518.117 518.79 520.987C518.551 522.422 518.312 523.857 518.073 525.292C515.801 524.933 513.529 524.575 511.257 524.216C506.713 523.498 501.451 522.183 495.473 520.27C489.494 518.357 482.08 515.128 473.231 510.584C464.383 506.04 456.73 501.257 450.273 496.235C443.816 491.213 437.119 484.756 430.184 476.864C423.248 468.971 417.27 460.482 412.247 451.394C407.225 442.306 403.399 433.577 400.768 425.206C398.137 416.836 396.344 409.781 395.387 404.041C394.43 398.302 393.952 390.768 393.952 381.441C393.952 372.114 394.191 366.016 394.67 363.146C394.909 361.711 395.148 360.276 395.387 358.841ZM683.447 358.841C684.165 358.841 684.643 359.2 684.882 359.918C685.121 360.635 685.48 363.385 685.958 368.168C686.437 372.951 686.556 378.691 686.317 385.387C686.078 392.084 685.48 398.421 684.523 404.4C683.567 410.379 681.534 418.032 678.425 427.359C675.316 436.686 671.25 445.654 666.228 454.264C661.206 462.873 655.227 471.004 648.292 478.657C641.356 486.31 634.182 492.887 626.768 498.387C619.354 503.888 611.342 508.671 602.733 512.737C594.123 516.802 585.155 519.911 575.828 522.064C571.165 523.14 566.501 524.216 561.838 525.292C561.599 519.672 561.359 514.052 561.12 508.432C560.642 497.192 560.761 488.821 561.479 483.321C562.196 477.82 563.87 470.646 566.501 461.797C569.132 452.948 571.763 445.774 574.393 440.273C577.024 434.773 579.894 429.631 583.003 424.848C586.112 420.065 591.493 413.488 599.146 405.118C606.798 396.747 614.093 390.051 621.028 385.029C627.964 380.006 635.138 375.702 642.552 372.114C649.966 368.527 658.456 365.418 668.022 362.787C677.588 360.157 682.73 358.841 683.447 358.841ZM642.911 551.838C649.607 551.838 656.423 552.316 663.358 553.273C670.294 554.23 677.707 555.904 685.599 558.295C693.492 560.687 700.188 563.198 705.688 565.829C711.189 568.459 717.168 571.927 723.625 576.232C730.082 580.536 736.18 585.32 741.92 590.581C747.66 595.842 753.28 602.06 758.78 609.235C764.281 616.409 768.107 622.269 770.26 626.813C771.336 629.085 772.412 631.357 773.488 633.628C771.216 634.705 768.944 635.781 766.672 636.857C762.129 639.009 756.867 641.042 750.888 642.955C744.909 644.869 739.529 646.304 734.745 647.26C729.962 648.217 723.147 648.934 714.298 649.413C705.449 649.891 695.166 649.173 683.447 647.26C671.729 645.347 660.728 642.238 650.444 637.933C640.16 633.628 631.073 628.726 623.18 623.225C615.288 617.725 608.831 612.463 603.809 607.441C598.787 602.419 594.841 598.114 591.971 594.527C589.101 590.94 585.633 585.798 581.568 579.102C577.502 572.405 576.546 568.34 578.698 566.905C580.85 565.47 585.514 563.437 592.688 560.806C599.863 558.176 608.353 556.023 618.158 554.349C627.964 552.675 636.214 551.838 642.911 551.838ZM437.358 553.273C445.729 553.273 452.545 553.632 457.806 554.349C463.067 555.067 468.807 556.262 475.025 557.936C481.243 559.611 487.581 561.883 494.038 564.752C497.266 566.187 500.495 567.622 503.723 569.057C502.647 571.209 501.571 573.362 500.495 575.514C498.342 579.819 495.234 584.722 491.168 590.222C487.102 595.723 483.395 600.267 480.047 603.854C476.699 607.441 472.275 611.507 466.774 616.051C461.274 620.595 456.491 624.182 452.425 626.813C448.359 629.443 442.739 632.433 435.565 635.781C428.39 639.129 421.096 641.879 413.682 644.032C406.269 646.184 398.735 647.739 391.082 648.695C383.429 649.652 373.744 649.652 362.025 648.695C350.307 647.739 340.741 646.184 333.327 644.032C325.913 641.879 319.575 639.607 314.314 637.216C311.683 636.02 309.053 634.824 306.422 633.628C307.498 631.596 308.574 629.563 309.651 627.53C311.803 623.464 314.792 618.801 318.619 613.54C322.445 608.278 326.511 603.376 330.816 598.832C335.12 594.288 340.262 589.624 346.241 584.841C352.22 580.058 357.84 576.112 363.101 573.003C368.363 569.894 374.102 567.024 380.32 564.394C386.538 561.763 395.507 559.252 407.225 556.86C418.944 554.469 428.988 553.273 437.358 553.273ZM538.879 594.886C541.749 597.995 544.619 601.104 547.488 604.213C553.228 610.431 558.49 617.605 563.273 625.736C568.056 633.868 572.002 642.358 575.111 651.206C578.22 660.055 580.372 668.306 581.568 675.959C582.764 683.612 583.242 692.699 583.003 703.222C582.764 713.745 581.329 724.268 578.698 734.79C576.067 745.313 572.719 754.76 568.654 763.13C564.588 771.5 559.087 780.11 552.152 788.959C545.217 797.807 540.912 801.753 539.238 800.797C537.564 799.84 534.455 796.611 529.911 791.111C525.367 785.61 520.703 778.675 515.92 770.305C511.137 761.934 507.191 752.966 504.082 743.4C500.973 733.834 498.94 725.344 497.984 717.93C497.027 710.516 496.788 701.548 497.266 691.025C497.745 680.503 499.299 670.339 501.93 660.533C504.56 650.728 508.028 641.521 512.333 632.911C516.638 624.302 522.138 615.812 528.835 607.441C532.183 603.256 535.531 599.071 538.879 594.886ZM460.676 665.197C460.317 672.371 459.958 679.546 459.6 686.721C458.882 701.07 458.882 711.592 459.6 718.289C460.317 724.985 461.513 732.04 463.187 739.454C464.861 746.868 467.013 754.162 469.644 761.336C472.275 768.511 475.384 775.566 478.971 782.501C482.558 789.437 486.385 795.894 490.45 801.873C494.516 807.852 498.821 813.352 503.365 818.374C505.637 820.885 507.909 823.397 510.181 825.908C508.028 827.103 505.876 828.299 503.723 829.495C499.419 831.887 494.038 834.278 487.581 836.67C481.123 839.061 473.71 841.094 465.339 842.768C456.969 844.442 449.436 845.399 442.739 845.638C436.043 845.877 429.108 845.638 421.933 844.92C414.758 844.203 407.823 843.007 401.127 841.333C394.43 839.659 386.778 836.909 378.168 833.082C369.558 829.256 362.982 825.908 358.438 823.038C353.894 820.168 349.948 817.418 346.6 814.787C343.252 812.156 337.99 807.015 330.816 799.362C323.641 791.709 318.38 785.371 315.032 780.349C311.683 775.327 308.455 769.587 305.346 763.13C302.237 756.673 299.487 749.498 297.095 741.606C294.704 733.714 293.149 727.496 292.432 722.952C291.714 718.408 291.236 712.19 290.997 704.298C290.757 696.406 291.116 688.634 292.073 680.981C292.551 677.154 293.029 673.328 293.508 669.501C298.291 671.415 303.074 673.328 307.857 675.241C317.423 679.068 325.315 681.698 331.533 683.133C337.751 684.568 343.61 685.644 349.111 686.362C354.611 687.079 362.743 687.438 373.505 687.438C384.266 687.438 395.865 686.242 408.301 683.851C420.737 681.459 431.021 678.709 439.152 675.6C447.283 672.491 452.903 669.98 456.012 668.067C457.567 667.11 459.121 666.153 460.676 665.197ZM618.517 665.197C621.028 666.512 623.539 667.827 626.05 669.143C631.073 671.773 636.453 674.165 642.193 676.317C647.933 678.47 654.629 680.503 662.282 682.416C669.935 684.329 676.512 685.644 682.012 686.362C687.513 687.079 695.644 687.438 706.406 687.438C717.168 687.438 725.299 687.079 730.799 686.362C736.3 685.644 744.67 683.731 755.911 680.622C767.151 677.513 775.043 674.882 779.587 672.73C781.859 671.654 784.131 670.578 786.403 669.501C786.881 672.73 787.359 675.959 787.837 679.187C788.794 685.644 789.272 691.982 789.272 698.2C789.272 704.418 788.914 710.516 788.196 716.495C787.479 722.474 786.044 729.409 783.891 737.301C781.739 745.193 778.989 752.727 775.641 759.901C772.293 767.076 768.705 773.533 764.879 779.273C761.052 785.012 756.269 790.991 750.53 797.209C744.79 803.427 739.887 808.21 735.822 811.558C731.756 814.907 727.093 818.255 721.831 821.603C716.57 824.951 709.874 828.419 701.742 832.006C693.611 835.593 686.317 838.224 679.86 839.898C673.403 841.572 667.065 842.768 660.847 843.485C654.629 844.203 647.215 844.442 638.606 844.203C629.996 843.964 622.941 843.366 617.441 842.409C611.94 841.453 606.44 840.137 600.939 838.463C595.439 836.789 589.101 834.278 581.927 830.93C578.339 829.256 574.752 827.582 571.165 825.908C573.556 823.157 575.948 820.407 578.339 817.657C583.122 812.156 587.547 806.297 591.612 800.079C595.678 793.861 599.504 787.045 603.092 779.632C606.679 772.218 609.549 765.402 611.701 759.184C613.854 752.966 616.006 743.759 618.158 731.562C620.311 719.365 621.387 708.723 621.387 699.635C621.387 690.547 620.909 682.535 619.952 675.6C619.474 672.132 618.995 668.664 618.517 665.197Z" fill="#203a8f" fill-rule="nonzero" opacity="1" stroke="none"/>
</g>
<metadata>
  <rdf:RDF xmlns:rdf="http://www.w3.org/1999/02/22-rdf-syntax-ns#"
           xmlns:cc="http://creativecommons.org/ns#"
           xmlns:dc="http://purl.org/dc/elements/1.1/">
    <cc:Work rdf:about="">
      <dc:format>image/svg+xml</dc:format>
      <dc:type rdf:resource="http://purl.org/dc/dcmitype/StillImage" />
      <dc:title>fOERbico</dc:title>
      <dc:creator>
        <cc:Agent>
          <dc:title>Jörg Lohrer</dc:title>
        </cc:Agent>
      </dc:creator>
      <dc:rights>
        <cc:Agent>
          <dc:title>Comenius-Institut</dc:title>
        </cc:Agent>
      </dc:rights>
      <cc:license rdf:resource="http://creativecommons.org/licenses/by/4.0/" />
    </cc:Work>
    <cc:License rdf:about="http://creativecommons.org/licenses/by/4.0/">
      <cc:permits rdf:resource="http://creativecommons.org/ns#Reproduction" />
      <cc:permits rdf:resource="http://creativecommons.org/ns#Distribution" />
      <cc:requires rdf:resource="http://creativecommons.org/ns#Notice" />
      <cc:requires rdf:resource="http://creativecommons.org/ns#Attribution" />
      <cc:permits rdf:resource="http://creativecommons.org/ns#DerivativeWorks" />
    </cc:License>
  </rdf:RDF>
</metadata>
</svg>
